<svg xmlns="http://www.w3.org/2000/svg" width="160" height="40" viewBox="0 0 160 40">
    <defs>
        <linearGradient id="a" x1="50%" x2="50%" y1="0%" y2="78.201%">
            <stop offset="0%" stop-color="#4A7AD1"/>
            <stop offset="100%" stop-color="#375CA0"/>
        </linearGradient>
    </defs>
    <g fill="none" fill-rule="evenodd">
        <path fill="url(#a)" fill-rule="nonzero" d="M49.246 11.795v15.132h7.287c3.423 0 5.688-1.356 5.733-4.068v-.126c0-2.032-1.094-3.048-2.866-3.718 1.074-.594 1.979-1.521 2.012-3.17l.001-.137c0-1.038-.35-1.881-1.05-2.573-.876-.865-2.254-1.34-4.005-1.34h-7.112zm3.282 6.118v-3.2h3.327c1.422 0 2.21.562 2.21 1.557v.043c0 1.124-.941 1.6-2.43 1.6h-3.107zm0 6.096v-3.33h3.896c1.699 0 2.468.606 2.494 1.591v.096c0 1.124-.897 1.643-2.385 1.643h-4.005zm12.518 2.918h3.37v-4.842h2.648l3.283 4.842h3.939l-3.742-5.404c1.919-.703 3.243-2.204 3.281-4.584l.001-.15c0-1.427-.46-2.616-1.313-3.46-1.007-.994-2.517-1.534-4.464-1.534h-7.003v15.132zm3.37-7.782V14.8h3.348c1.614 0 2.614.71 2.647 2.09l.001.115c0 1.275-.94 2.14-2.582 2.14h-3.414zm12.605 7.782h3.37V11.795h-3.37v15.132zm14.378.26c2.954 0 4.705-1.038 6.28-2.703l-2.144-2.14-.156.139c-1.142 1-2.196 1.634-3.87 1.634-2.599 0-4.404-2.116-4.442-4.674l-.001-.125c0-2.594 1.86-4.713 4.442-4.713 1.532 0 2.736.649 3.918 1.708l2.144-2.443c-1.422-1.383-3.151-2.335-6.04-2.335-4.658 0-7.922 3.454-7.986 7.697l-.001.172c0 4.345 3.348 7.782 7.856 7.782zm8.972-.26h3.37V22.3l1.773-1.816 4.749 6.442h4.048l-6.521-8.712 6.237-6.42h-4.07l-6.215 6.615v-6.615h-3.37v15.132zm15.976 0h11.007V23.9h-7.637V11.795h-3.37v15.132zm13.546 0h11.664v-2.962h-8.316v-3.177h7.222v-2.962h-7.222v-3.07h8.207v-2.961h-11.555v15.132zm18.23 0V14.864h-4.662v-3.07h12.693v3.07h-4.662v12.063h-3.37z"/>
        <path fill="#375CA0" d="M11.743 19l-9.87-2.348s-.538-.01-.072-.57L9.87 12.17s.96-.533 1.945-.356l-.072 7.188zM1.023 17.668l22.354 5.196c.543.126.983.689.98 1.257l-.018 5.822c-.002.564-.443.914-.985.783L1.08 25.313c-.51-.124-.925-.668-.929-1.215L.107 18.45c-.004-.55.406-.901.916-.782zM1.064 26.395l9.155 2.286c.538.134.972.667.972 1.19v5.802c0 .524-.434.855-.972.74l-9.155-1.968C.478 34.32 0 33.771 0 33.221v-6.096c0-.55.478-.876 1.064-.73zM14.247 29.654l9.154 2.285c.539.135.973.668.973 1.191v5.802c0 .523-.434.855-.973.739l-9.154-1.967c-.587-.126-1.064-.675-1.064-1.225v-6.095c0-.55.477-.877 1.064-.73z"/>
        <path fill="#F58530" d="M14.202 11.81l9.156 2.117c.561.13 1.016.66 1.016 1.183v5.802c0 .523-.455.843-1.016.714l-9.156-2.107c-.563-.13-1.02-.66-1.02-1.184v-5.81c0-.525.457-.844 1.02-.714z"/>
        <path fill="#375CA0" d="M26.13 31.775L42.988 20.97c.449-.288.814 0 .814.643v5.782c0 .643-.365 1.393-.814 1.674L26.13 39.612c-.42.262-.76-.029-.76-.65v-5.576c0-.62.34-1.342.76-1.61z"/>
        <path fill="#F58530" d="M26.08 13.472L42.5 3.177c.437-.274.79.015.787.645l-.02 5.667c-.003.632-.36 1.361-.797 1.629L26.03 21.186c-.41.25-.739-.042-.735-.654l.036-5.49c.005-.61.34-1.313.749-1.57zM14.562 10.09L30.557.286c.344-.211 1.131-.278 1.76-.15l8.67 1.776c.658.135.912.421.565.64l-16.15 10.146c-.367.23-1.192.29-1.84.133l-8.539-2.066c-.619-.15-.824-.45-.461-.673z"/>
        <path fill="#375CA0" d="M26.137 22.33l6.921-4.04c.385-.225.696.025.696.557v5.551c0 .532-.311 1.16-.696 1.404l-6.921 4.378c-.423.267-.767.03-.767-.531v-5.855c0-.561.344-1.217.767-1.464zM35.809 16.654l6.805-4.325c.395-.251.719-.03.724.493l.055 5.502c.005.531-.314 1.17-.712 1.424l-6.866 4.391c-.401.257-.727.03-.727-.508V18.07c0-.53.323-1.163.72-1.416z"/>
    </g>
</svg>
