<svg id="Layer_1" data-name="Layer 1" xmlns="http://www.w3.org/2000/svg" viewBox="0 0 80 80">
  <title>icon_forgotpassword</title>
  <g>
    <path d="M54.6,12.8L42.5,1.5a3.7,3.7,0,0,0-5.1,0L25.4,12.8H54.6Z" fill="#308ae7"/>
    <polygon points="71.3 12.8 8.7 12.8 8.7 42.1 29.1 57.7 50.9 57.7 71.3 42.1 71.3 12.8" fill="#6fabe9"/>
    <path d="M42.4,27.8H24c-1.7,0-3.1-.6-3.1-1.4S22.3,25,24,25H42.4c1.7,0,3.1.6,3.1,1.4S44.1,27.8,42.4,27.8Z" fill="#a5ccf4"/>
    <path d="M56.3,42.7H48.2a1.4,1.4,0,0,1,0-2.7h8.2A1.4,1.4,0,0,1,56.3,42.7Z" fill="#a5ccf4"/>
    <path d="M30.3,35.9H22.5a1.4,1.4,0,1,1,0-2.7h7.8A1.4,1.4,0,1,1,30.3,35.9Z" fill="#a5ccf4"/>
    <path d="M50.9,35.9H41.4a1.4,1.4,0,1,1,0-2.7h9.5A1.4,1.4,0,1,1,50.9,35.9Z" fill="#a5ccf4"/>
    <path d="M42.2,42.7H22.9A1.7,1.7,0,0,1,21,41.4,1.7,1.7,0,0,1,22.9,40H42.2a1.7,1.7,0,0,1,1.9,1.4A1.7,1.7,0,0,1,42.2,42.7Z" fill="#a5ccf4"/>
    <polygon points="8.9 42.2 8.7 42.1 8.7 28.3 0.6 35.9 0.6 35.9 8.9 42.2" fill="#308ae7"/>
    <polygon points="71.3 28.3 71.3 42.1 71 42.4 71 42.4 79.4 35.9 79.4 35.9 71.3 28.3" fill="#308ae7"/>
    <polygon points="0.6 79.4 0.7 79.4 78.8 79.4 79.3 79.4 79.4 79.4 50.9 57.7 29.1 57.7 0.6 79.4" fill="#308ae7"/>
    <polygon points="0.6 79.4 0.6 35.9 29.1 57.7 0.6 79.4" fill="#1974d2"/>
    <polygon points="79.4 79.4 79.4 35.9 50.9 57.7 79.4 79.4" fill="#1974d2"/>
  </g>
</svg>
